# xmcd
#
# Track frame offsets: 
#        150
#        20045
#        34954
#        56705
#        71306
#        83044
#        93014
#        110791
#        131141
#        142445
#        160922
#        176130
#
# Disc length: 2528 seconds
#
# Revision: 0
# Processed by: cddbd v1.5.2PL0 Copyright (c) Steve Scherf et al.
# Submitted via: ExactAudioCopy v0.95a5
#
DISCID=b009de0c
DTITLE=Various Artist - 休闲音乐2（感动的旋律）
DYEAR=2007
DGENRE=Soul
TTITLE0=禁止的爱
TTITLE1=一见钟情
TTITLE2=星空
TTITLE3=云中漫步
TTITLE4=蓝色的爱情
TTITLE5=摇篮曲
TTITLE6=诗人和我
TTITLE7=孔雀舞
TTITLE8=回到家乡
TTITLE9=镜中
TTITLE10=丹尼男孩
TTITLE11=爱的罗曼斯
EXTD=
EXTT0=
EXTT1=
EXTT2=
EXTT3=
EXTT4=
EXTT5=
EXTT6=
EXTT7=
EXTT8=
EXTT9=
EXTT10=
EXTT11=
PLAYORDER=
